<svg version="1.1" width="750" height="260" xmlns="http://www.w3.org/2000/svg" xmlns:xlink="http://www.w3.org/1999/xlink" stroke="#000000" stroke-width="1" stroke-linecap="square" stroke-linejoin="miter" stroke-miterlimit="10" stroke-dasharray="" stroke-dashoffset="0" stroke-opacity="1" fill="#000000" fill-opacity="1" font-family="dialog" font-style="normal" font-weight="400" font-size="12" overflow="hidden"><defs id="genericDefs"></defs><g><g transform="matrix(0.1228,0,0,0.1237,15.702,15.7857)"><g clip-path="url(#clipPath3)"><svg version="1.1" width="457.333" height="453.333" xmlns="http://www.w3.org/2000/svg" xmlns:xlink="http://www.w3.org/1999/xlink" id="svg1.svg4773" color="#000000" stroke="none" stroke-width="1" stroke-linecap="butt" stroke-linejoin="miter" stroke-miterlimit="4" stroke-dasharray="" stroke-dashoffset="0" stroke-opacity="1" fill="#000000" fill-rule="nonzero" fill-opacity="1" clip-rule="nonzero" font-family="arial,helvetica,arial" font-style="normal" font-variant="normal" font-weight="400" font-stretch="normal" font-size="12" text-anchor="start" letter-spacing="0" word-spacing="0" direction="ltr" writing-mode="lr-tb" visibility="visible" display="inline" overflow="visible" clip="auto" opacity="1" stop-color="#000000" stop-opacity="1" flood-color="#000000" flood-opacity="1" lighting-color="#FFFFFF" unicode-bidi="normal" text-decoration="none" baseline-shift="baseline"><defs id="svg1.defs4775"><clipPath id="clipPath1"><path d=" M 0 0 L 750 0 L 750 260 L 0 260 L 0 0 Z"/></clipPath><clipPath id="clipPath2"><path d=" M 303 365 L 1012 365 L 1012 610.787 L 303 610.787 L 303 365 Z"/></clipPath><clipPath id="clipPath3"><path d=" M -127.879 -127.611 L 5980.19 -127.611 L 5980.19 1974.22 L -127.879 1974.22 L -127.879 -127.611 Z"/></clipPath><clipPath id="clipPath4"><path d=" M -127.879 -883.558 L 5980.19 -883.558 L 5980.19 1218.27 L -127.879 1218.27 L -127.879 -883.558 Z"/></clipPath></defs><g id="svg1.layer1"><circle cx="300" cy="230" r="115" id="svg1.circle3045" stroke="#000000" stroke-width="9.5" stroke-miterlimit="4" stroke-dasharray="" fill="none" transform="matrix(1,0,0,1,-82.4576,-73.4746)"/><path d=" M 24.361 407.925 C 62.2477 301.234 179.451 245.457 286.142 283.344 C 344.307 303.999 390.069 349.761 410.724 407.925" id="svg1.path3047" stroke="#000000" stroke-width="9.5" stroke-linecap="butt" stroke-miterlimit="4" stroke-dasharray="" fill="none"/><rect x="6.52541" y="7.88135" width="416.949" height="404.237" id="svg1.rect4325" stroke="#000000" stroke-width="7.6" stroke-linejoin="miter" stroke-miterlimit="4" stroke-dasharray="" stroke-dashoffset="0" stroke-opacity="1" fill="none"/></g></svg></g></g><g stroke-linecap="butt" stroke-miterlimit="1.45" font-family="arial" font-size="13" transform="matrix(1.0578,0,0,1.0578,-320.522,-386.107)"><text stroke="none" clip-path="url(#clipPath2)" x="327.985" y="446.627">User</text></g><g transform="matrix(0.1228,0,0,0.1237,15.702,109.298)"><g clip-path="url(#clipPath4)"><svg version="1.1" width="457.333" height="453.333" xmlns="http://www.w3.org/2000/svg" xmlns:xlink="http://www.w3.org/1999/xlink" id="svg2.svg4773" color="#000000" stroke="none" stroke-width="1" stroke-linecap="butt" stroke-linejoin="miter" stroke-miterlimit="4" stroke-dasharray="" stroke-dashoffset="0" stroke-opacity="1" fill="#000000" fill-rule="nonzero" fill-opacity="1" clip-rule="nonzero" font-family="arial,helvetica,arial" font-style="normal" font-variant="normal" font-weight="400" font-stretch="normal" font-size="12" text-anchor="start" letter-spacing="0" word-spacing="0" direction="ltr" writing-mode="lr-tb" visibility="visible" display="inline" overflow="visible" clip="auto" opacity="1" stop-color="#000000" stop-opacity="1" flood-color="#000000" flood-opacity="1" lighting-color="#FFFFFF" unicode-bidi="normal" text-decoration="none" baseline-shift="baseline"><defs id="svg2.defs4775"></defs><g id="svg2.layer1"><circle cx="300" cy="230" r="115" id="svg2.circle3045" stroke="#000000" stroke-width="9.5" stroke-miterlimit="4" stroke-dasharray="" fill="none" transform="matrix(1,0,0,1,-82.4576,-73.4746)"/><path d=" M 24.361 407.925 C 62.2477 301.234 179.451 245.457 286.142 283.344 C 344.307 303.999 390.069 349.761 410.724 407.925" id="svg2.path3047" stroke="#000000" stroke-width="9.5" stroke-linecap="butt" stroke-miterlimit="4" stroke-dasharray="" fill="none"/><rect x="6.52541" y="7.88135" width="416.949" height="404.237" id="svg2.rect4325" stroke="#000000" stroke-width="7.6" stroke-linejoin="miter" stroke-miterlimit="4" stroke-dasharray="" stroke-dashoffset="0" stroke-opacity="1" fill="none"/></g></svg></g></g><g stroke-linecap="butt" stroke-miterlimit="1.45" font-family="arial" font-size="13" transform="matrix(1.0578,0,0,1.0578,-320.522,-386.107)"><text stroke="none" clip-path="url(#clipPath2)" x="327.985" y="535.027">User</text></g><g stroke="#FFFFFF" fill="#FFFFFF" transform="matrix(1.0578,0,0,1.0578,-320.522,-386.107)"><rect x="495.12" y="431.25" width="122.25" height="37.5" stroke="none" clip-path="url(#clipPath2)"/></g><g stroke-linecap="butt" stroke-miterlimit="1.45" font-family="arial" transform="matrix(1.0578,0,0,1.0578,-320.522,-386.107)"><text stroke="none" clip-path="url(#clipPath2)" x="522.387" y="454.154">Login Node</text><rect x="495.12" y="431.25" width="122.25" height="37.5" fill="none" clip-path="url(#clipPath2)"/></g><g stroke="#FFFFFF" fill="#FFFFFF" transform="matrix(1.0578,0,0,1.0578,-320.522,-386.107)"><rect x="692.625" y="431.25" width="122.25" height="37.5" stroke="none" clip-path="url(#clipPath2)"/></g><g stroke-linecap="butt" stroke-miterlimit="1.45" font-family="arial" transform="matrix(1.0578,0,0,1.0578,-320.522,-386.107)"><text stroke="none" clip-path="url(#clipPath2)" x="723.712" y="454.154">Scheduler</text><rect x="692.625" y="431.25" width="122.25" height="37.5" fill="none" clip-path="url(#clipPath2)"/></g><g stroke="#FFFFFF" fill="#FFFFFF" transform="matrix(1.0578,0,0,1.0578,-320.522,-386.107)"><rect x="522" y="542.76" width="122.25" height="37.5" stroke="none" clip-path="url(#clipPath2)"/></g><g stroke-linecap="butt" stroke-miterlimit="1.45" font-family="arial" transform="matrix(1.0578,0,0,1.0578,-320.522,-386.107)"><text stroke="none" clip-path="url(#clipPath2)" x="538.198" y="565.664">Compute Node</text><rect x="522" y="542.76" width="122.25" height="37.5" fill="none" clip-path="url(#clipPath2)"/></g><g stroke="#FFFFFF" fill="#FFFFFF" transform="matrix(1.0578,0,0,1.0578,-320.522,-386.107)"><rect x="863.25" y="542.76" width="122.25" height="37.5" stroke="none" clip-path="url(#clipPath2)"/></g><g stroke-linecap="butt" stroke-miterlimit="1.45" font-family="arial" transform="matrix(1.0578,0,0,1.0578,-320.522,-386.107)"><text stroke="none" clip-path="url(#clipPath2)" x="879.448" y="565.664">Compute Node</text><rect x="863.25" y="542.76" width="122.25" height="37.5" fill="none" clip-path="url(#clipPath2)"/></g><g stroke="#FFFFFF" fill="#FFFFFF" transform="matrix(1.0578,0,0,1.0578,-320.522,-386.107)"><rect x="692.625" y="542.76" width="122.25" height="37.5" stroke="none" clip-path="url(#clipPath2)"/></g><g stroke-linecap="butt" stroke-miterlimit="1.45" font-family="arial" transform="matrix(1.0578,0,0,1.0578,-320.522,-386.107)"><text stroke="none" clip-path="url(#clipPath2)" x="708.823" y="565.664">Compute Node</text><rect x="692.625" y="542.76" width="122.25" height="37.5" fill="none" clip-path="url(#clipPath2)"/></g><g stroke="#FFFFFF" fill="#FFFFFF" transform="matrix(1.0578,0,0,1.0578,-320.522,-386.107)"><rect x="527.625" y="551.25" width="122.25" height="37.5" stroke="none" clip-path="url(#clipPath2)"/></g><g stroke-linecap="butt" stroke-miterlimit="1.45" font-family="arial" transform="matrix(1.0578,0,0,1.0578,-320.522,-386.107)"><text stroke="none" clip-path="url(#clipPath2)" x="543.823" y="574.154">Compute Node</text><rect x="527.625" y="551.25" width="122.25" height="37.5" fill="none" clip-path="url(#clipPath2)"/></g><g stroke="#FFFFFF" fill="#FFFFFF" transform="matrix(1.0578,0,0,1.0578,-320.522,-386.107)"><rect x="868.875" y="551.25" width="122.25" height="37.5" stroke="none" clip-path="url(#clipPath2)"/></g><g stroke-linecap="butt" stroke-miterlimit="1.45" font-family="arial" transform="matrix(1.0578,0,0,1.0578,-320.522,-386.107)"><text stroke="none" clip-path="url(#clipPath2)" x="885.073" y="574.154">Compute Node</text><rect x="868.875" y="551.25" width="122.25" height="37.5" fill="none" clip-path="url(#clipPath2)"/></g><g stroke="#FFFFFF" fill="#FFFFFF" transform="matrix(1.0578,0,0,1.0578,-320.522,-386.107)"><rect x="698.25" y="551.25" width="122.25" height="37.5" stroke="none" clip-path="url(#clipPath2)"/></g><g stroke-linecap="butt" stroke-miterlimit="1.45" font-family="arial" transform="matrix(1.0578,0,0,1.0578,-320.522,-386.107)"><text stroke="none" clip-path="url(#clipPath2)" x="714.448" y="574.154">Compute Node</text><rect x="698.25" y="551.25" width="122.25" height="37.5" fill="none" clip-path="url(#clipPath2)"/></g><g stroke="#FFFFFF" fill="#FFFFFF" transform="matrix(1.0578,0,0,1.0578,-320.522,-386.107)"><rect x="533.25" y="558.46" width="122.25" height="37.5" stroke="none" clip-path="url(#clipPath2)"/></g><g stroke-linecap="butt" stroke-miterlimit="1.45" font-family="arial" transform="matrix(1.0578,0,0,1.0578,-320.522,-386.107)"><text stroke="none" clip-path="url(#clipPath2)" x="549.448" y="581.364">Compute Node</text><rect x="533.25" y="558.46" width="122.25" height="37.5" fill="none" clip-path="url(#clipPath2)"/></g><g stroke="#FFFFFF" fill="#FFFFFF" transform="matrix(1.0578,0,0,1.0578,-320.522,-386.107)"><rect x="874.5" y="558.46" width="122.25" height="37.5" stroke="none" clip-path="url(#clipPath2)"/></g><g stroke-linecap="butt" stroke-miterlimit="1.45" font-family="arial" transform="matrix(1.0578,0,0,1.0578,-320.522,-386.107)"><text stroke="none" clip-path="url(#clipPath2)" x="890.698" y="581.364">Compute Node</text><rect x="874.5" y="558.46" width="122.25" height="37.5" fill="none" clip-path="url(#clipPath2)"/></g><g stroke="#FFFFFF" fill="#FFFFFF" transform="matrix(1.0578,0,0,1.0578,-320.522,-386.107)"><rect x="703.875" y="558.46" width="122.25" height="37.5" stroke="none" clip-path="url(#clipPath2)"/></g><g stroke-linecap="butt" stroke-miterlimit="1.45" font-family="arial" transform="matrix(1.0578,0,0,1.0578,-320.522,-386.107)"><text stroke="none" clip-path="url(#clipPath2)" x="720.073" y="581.364">Compute Node</text><rect x="703.875" y="558.46" width="122.25" height="37.5" fill="none" clip-path="url(#clipPath2)"/><path d=" M 367.422 409.731 L 487.296 435.296" fill="none" clip-path="url(#clipPath2)"/><path d=" M 495.12 436.964 L 484.427 429.571 L 486.318 435.087 L 482.341 439.351 Z" stroke="none" clip-path="url(#clipPath2)"/><rect x="419.225" y="414.365" width="24.1094" height="17.9688" stroke="none" fill="#FFFFFF" clip-path="url(#clipPath2)"/><text stroke="none" clip-path="url(#clipPath2)" x="421.225" y="427.504">ssh</text><path d=" M 367.422 487.934 L 487.277 463.855" fill="none" clip-path="url(#clipPath2)"/><path d=" M 495.12 462.28 L 482.37 459.741 L 486.296 464.052 L 484.34 469.545 Z" stroke="none" clip-path="url(#clipPath2)"/><rect x="419.225" y="466.12" width="24.1094" height="17.9688" stroke="none" fill="#FFFFFF" clip-path="url(#clipPath2)"/><text stroke="none" clip-path="url(#clipPath2)" x="421.225" y="479.259">ssh</text><path d=" M 617.37 450 L 684.625 450" fill="none" clip-path="url(#clipPath2)"/><path d=" M 692.625 450 L 680.625 445 L 683.625 450 L 680.625 455 Z" stroke="none" clip-path="url(#clipPath2)"/><rect x="640.622" y="441.016" width="28.75" height="17.9688" stroke="none" fill="#FFFFFF" clip-path="url(#clipPath2)"/><text stroke="none" clip-path="url(#clipPath2)" x="642.622" y="454.154">Jobs</text><path d=" M 725.06 468.75 L 618.512 538.383" fill="none" clip-path="url(#clipPath2)"/><path d=" M 611.815 542.76 L 624.595 540.381 L 619.349 537.836 L 619.125 532.01 Z" stroke="none" clip-path="url(#clipPath2)"/><path d=" M 782.44 468.75 L 888.988 538.383" fill="none" clip-path="url(#clipPath2)"/><path d=" M 895.685 542.76 L 888.375 532.01 L 888.151 537.836 L 882.905 540.381 Z" stroke="none" clip-path="url(#clipPath2)"/><path d=" M 753.75 468.75 L 753.75 534.76" fill="none" clip-path="url(#clipPath2)"/><path d=" M 753.75 542.76 L 758.75 530.76 L 753.75 533.76 L 748.75 530.76 Z" stroke="none" clip-path="url(#clipPath2)"/></g></g></svg>